<svg width="24" height="25" viewBox="0 0 24 25" fill="none" xmlns="http://www.w3.org/2000/svg">
<path d="M14.9998 10.2585C14.9998 11.9154 13.6566 13.2585 11.9998 13.2585C10.3429 13.2585 8.99976 11.9154 8.99976 10.2585C8.99976 8.60169 10.3429 7.25854 11.9998 7.25854C13.6566 7.25854 14.9998 8.60169 14.9998 10.2585Z" stroke="#161616" stroke-width="1.5" stroke-linecap="round"/>
<path d="M11.9998 3.25854C8.13376 3.25854 4.99976 6.3161 4.99976 10.0878C4.99976 12.0142 5.49976 14.4184 7.99976 16.9547L10.7306 19.7252C11.4315 20.4363 12.568 20.4363 13.2689 19.7252L15.9998 16.9547C18.4998 14.4184 18.9998 11.948 18.9998 10.0878C18.9998 6.3161 15.8657 3.25854 11.9998 3.25854Z" stroke="#161616" stroke-width="1.5" stroke-linecap="round"/>
</svg>
