<svg width="32" height="32" viewBox="0 0 32 32" fill="none" xmlns="http://www.w3.org/2000/svg">
<path d="M20.5833 23.3333C20.0028 25.4423 17.9657 26.9999 15.5417 26.9999C13.1177 26.9999 11.0805 25.4423 10.5 23.3333" stroke="#757575" stroke-width="2"/>
<path d="M8.08833 12.74C8.08833 8.46534 11.407 5 15.5007 5C19.5945 5 22.9131 8.46534 22.9131 12.74V13.707C22.9131 14.4749 23.0773 15.2331 23.3939 15.9263L24.8756 19.1714C25.5261 20.5959 24.8579 22.2868 23.4082 22.733C21.1736 23.4209 17.9685 24.2499 15.5006 24.25C13.0322 24.2501 9.82628 23.4209 7.59133 22.7329C6.14188 22.2867 5.47388 20.596 6.12453 19.1718L7.60714 15.9267C7.92393 15.2333 8.08833 14.4747 8.08833 13.7065V12.74Z" stroke="#757575" stroke-width="2" stroke-linejoin="round"/>
</svg>
