<svg width="25" height="24" viewBox="0 0 25 24" fill="none" xmlns="http://www.w3.org/2000/svg">
<path fill-rule="evenodd" clip-rule="evenodd" d="M8.098 4.487C8.365 3.177 9.531 2.25 10.866 2.25H14.134C15.469 2.25 16.634 3.177 16.902 4.487C16.9315 4.63125 17.0088 4.76137 17.1212 4.85642C17.2337 4.95147 17.3748 5.00591 17.522 5.011H17.555C18.958 5.073 20.036 5.245 20.936 5.836C21.503 6.208 21.991 6.686 22.371 7.245C22.844 7.939 23.052 8.737 23.152 9.701C23.25 10.644 23.25 11.825 23.25 13.321V13.406C23.25 14.902 23.25 16.084 23.152 17.026C23.052 17.99 22.844 18.788 22.371 19.483C21.9889 20.0416 21.5015 20.5202 20.936 20.892C20.233 21.353 19.426 21.557 18.448 21.654C17.49 21.75 16.289 21.75 14.763 21.75H10.237C8.711 21.75 7.51 21.75 6.552 21.654C5.574 21.557 4.767 21.354 4.064 20.892C3.49844 20.5199 3.01099 20.0409 2.629 19.482C2.156 18.788 1.948 17.99 1.848 17.026C1.75 16.084 1.75 14.902 1.75 13.406V13.321C1.75 11.825 1.75 10.644 1.848 9.701C1.948 8.737 2.156 7.939 2.629 7.245C3.01099 6.68607 3.49844 6.20711 4.064 5.835C4.964 5.245 6.042 5.073 7.445 5.012L7.462 5.011H7.478C7.62516 5.00591 7.76632 4.95147 7.87879 4.85642C7.99125 4.76137 8.06846 4.63125 8.098 4.487ZM10.866 3.75C10.226 3.75 9.689 4.193 9.568 4.786C9.373 5.746 8.521 6.502 7.496 6.511C6.148 6.571 5.426 6.736 4.886 7.09C4.48545 7.35393 4.14004 7.69322 3.869 8.089C3.593 8.494 3.427 9.013 3.339 9.856C3.251 10.712 3.25 11.816 3.25 13.364C3.25 14.912 3.25 16.015 3.34 16.871C3.427 17.714 3.593 18.233 3.87 18.639C4.138 19.033 4.483 19.373 4.887 19.638C5.304 19.911 5.838 20.076 6.701 20.162C7.575 20.249 8.701 20.25 10.278 20.25H14.722C16.298 20.25 17.424 20.25 18.299 20.162C19.162 20.076 19.696 19.912 20.113 19.638C20.517 19.373 20.863 19.033 21.131 18.638C21.407 18.233 21.573 17.714 21.661 16.871C21.749 16.015 21.75 14.911 21.75 13.364C21.75 11.817 21.75 10.712 21.66 9.856C21.573 9.013 21.407 8.494 21.13 8.089C20.8591 7.69286 20.5136 7.35322 20.113 7.089C19.575 6.736 18.853 6.571 17.503 6.511C16.479 6.501 15.627 5.747 15.432 4.786C15.368 4.49027 15.2039 4.22569 14.9674 4.03694C14.7309 3.84819 14.4366 3.74684 14.134 3.75H10.866ZM12.5 10.75C11.9033 10.75 11.331 10.9871 10.909 11.409C10.4871 11.831 10.25 12.4033 10.25 13C10.25 13.5967 10.4871 14.169 10.909 14.591C11.331 15.0129 11.9033 15.25 12.5 15.25C13.0967 15.25 13.669 15.0129 14.091 14.591C14.5129 14.169 14.75 13.5967 14.75 13C14.75 12.4033 14.5129 11.831 14.091 11.409C13.669 10.9871 13.0967 10.75 12.5 10.75ZM8.75 13C8.75 12.0054 9.14509 11.0516 9.84835 10.3483C10.5516 9.64509 11.5054 9.25 12.5 9.25C13.4946 9.25 14.4484 9.64509 15.1517 10.3483C15.8549 11.0516 16.25 12.0054 16.25 13C16.25 13.9946 15.8549 14.9484 15.1517 15.6517C14.4484 16.3549 13.4946 16.75 12.5 16.75C11.5054 16.75 10.5516 16.3549 9.84835 15.6517C9.14509 14.9484 8.75 13.9946 8.75 13ZM17.75 10C17.75 9.80109 17.829 9.61032 17.9697 9.46967C18.1103 9.32902 18.3011 9.25 18.5 9.25H19.5C19.6989 9.25 19.8897 9.32902 20.0303 9.46967C20.171 9.61032 20.25 9.80109 20.25 10C20.25 10.1989 20.171 10.3897 20.0303 10.5303C19.8897 10.671 19.6989 10.75 19.5 10.75H18.5C18.3011 10.75 18.1103 10.671 17.9697 10.5303C17.829 10.3897 17.75 10.1989 17.75 10Z" fill="black"/>
</svg>
