<svg width="16" height="16" viewBox="0 0 16 16" fill="none" xmlns="http://www.w3.org/2000/svg">
<path d="M10.5509 4.5509C10.8437 4.25806 11.3185 4.25817 11.6114 4.5509C11.9043 4.84379 11.9043 5.31855 11.6114 5.61145L9.06066 8.16125L11.5782 10.6788L11.63 10.7364C11.8701 11.031 11.8528 11.4648 11.5782 11.7394C11.3037 12.0139 10.8699 12.0312 10.5753 11.7911L10.5177 11.7394L8.00012 9.2218L5.48352 11.7394C5.19062 12.0323 4.71586 12.0323 4.42297 11.7394C4.13024 11.4465 4.13013 10.9717 4.42297 10.6788L6.93957 8.16125L4.38977 5.61145L4.33801 5.5548C4.0977 5.26022 4.11516 4.8255 4.38977 4.5509C4.66437 4.27629 5.09909 4.25883 5.39367 4.49914L5.45031 4.5509L8.00012 7.1007L10.5509 4.5509Z" fill="#353535"/>
</svg>
