<svg width="24" height="20" viewBox="0 0 24 20" fill="none" xmlns="http://www.w3.org/2000/svg">
<path fill-rule="evenodd" clip-rule="evenodd" d="M21.5035 1.77399C19.2229 -0.591332 15.5253 -0.591332 13.2447 1.774L11.9778 3.08797C11.9173 3.15072 11.8192 3.15072 11.7587 3.08797L10.4918 1.774C8.21119 -0.591332 4.51359 -0.59133 2.23299 1.774C-0.0476239 4.13932 -0.107481 9.55829 2.23291 12.827C4.4203 15.8819 10.4571 19.2866 11.2371 19.7188C11.2933 19.7499 11.3422 19.7901 11.3924 19.8307C11.6607 20.0478 12.0352 20.0561 12.3116 19.8556C12.3853 19.8021 12.4563 19.7491 12.5398 19.7145C13.417 19.3511 18.7399 17.0176 21.5035 12.827C24.5214 8.25082 23.7842 4.13932 21.5035 1.77399Z" fill="#FF4D4C"/>
</svg>
