<svg width="24" height="24" viewBox="0 0 24 24" fill="none" xmlns="http://www.w3.org/2000/svg">
<path d="M12.0002 4.75C13.7952 4.75 15.2502 6.20506 15.2502 8C15.2502 9.79498 13.7952 11.25 12.0002 11.25C10.2053 11.2499 8.75024 9.79495 8.75024 8C8.7503 6.2051 10.2053 4.75006 12.0002 4.75Z" stroke="#757575" stroke-width="1.5"/>
<path d="M12.001 13.75C15.0546 13.7501 17.5964 15.8828 18.1963 18.71L18.248 18.9863C18.2571 19.0411 18.242 19.1008 18.1924 19.1562C18.1409 19.2136 18.0647 19.25 17.9814 19.25H6.01953C5.93547 19.25 5.85896 19.2136 5.80762 19.1562C5.75833 19.1011 5.74411 19.0416 5.75293 18.9863C6.24212 16.0228 8.84862 13.75 12.001 13.75Z" stroke="#757575" stroke-width="1.5"/>
</svg>
