<svg width="24" height="24" viewBox="0 0 24 24" fill="none" xmlns="http://www.w3.org/2000/svg">
<path d="M21.5 6V16.6667C21.5 17.0203 21.3495 17.3594 21.0816 17.6095C20.8137 17.8595 20.4503 18 20.0714 18H6.5V14H11.5V10H16.5V6H21.5Z" fill="#E9E9E9"/>
<path d="M22.5 5.7C22.5 5.88565 22.4263 6.0637 22.295 6.19497C22.1637 6.32625 21.9857 6.4 21.8 6.4H17.6V9.9C17.6 10.0857 17.5263 10.2637 17.395 10.395C17.2637 10.5262 17.0857 10.6 16.9 10.6H12.7V14.1C12.7 14.2857 12.6263 14.4637 12.495 14.595C12.3637 14.7263 12.1857 14.8 12 14.8H7.8V18.3C7.8 18.4857 7.72625 18.6637 7.59497 18.795C7.4637 18.9263 7.28565 19 7.1 19H2.2C2.01435 19 1.8363 18.9263 1.70503 18.795C1.57375 18.6637 1.5 18.4857 1.5 18.3C1.5 18.1143 1.57375 17.9363 1.70503 17.805C1.8363 17.6737 2.01435 17.6 2.2 17.6H6.4V14.1C6.4 13.9143 6.47375 13.7363 6.60503 13.605C6.7363 13.4737 6.91435 13.4 7.1 13.4H11.3V9.9C11.3 9.71435 11.3737 9.5363 11.505 9.40503C11.6363 9.27375 11.8143 9.2 12 9.2H16.2V5.7C16.2 5.51435 16.2737 5.3363 16.405 5.20503C16.5363 5.07375 16.7143 5 16.9 5H21.8C21.9857 5 22.1637 5.07375 22.295 5.20503C22.4263 5.3363 22.5 5.51435 22.5 5.7Z" fill="#757575"/>
</svg>
