<svg width="24" height="24" viewBox="0 0 24 24" fill="none" xmlns="http://www.w3.org/2000/svg">
<path d="M8.53 10.6V19M14.178 7.716L13.472 10.6H17.588C17.8072 10.6 18.0234 10.6506 18.2195 10.7478C18.4155 10.845 18.5861 10.9861 18.7176 11.16C18.8491 11.3339 18.938 11.5357 18.9772 11.7496C19.0164 11.9634 19.0049 12.1834 18.9435 12.392L17.2985 17.992C17.213 18.2828 17.0346 18.5382 16.7902 18.72C16.5458 18.9018 16.2485 19 15.943 19H6.412C6.03752 19 5.67837 18.8525 5.41357 18.5899C5.14876 18.3274 5 17.9713 5 17.6V12C5 11.6287 5.14876 11.2726 5.41357 11.0101C5.67837 10.7475 6.03752 10.6 6.412 10.6H8.36056C8.62326 10.5999 8.8807 10.5271 9.10395 10.3898C9.3272 10.2525 9.50741 10.0562 9.62431 9.823L12.06 5C12.3929 5.00409 12.7206 5.08272 13.0186 5.23002C13.3166 5.37732 13.5772 5.58947 13.7808 5.85064C13.9845 6.11181 14.126 6.41523 14.1948 6.73824C14.2635 7.06125 14.2578 7.39549 14.178 7.716Z" stroke="#161616" stroke-width="1.5" stroke-linecap="round" stroke-linejoin="round"/>
</svg>
