<svg width="32" height="32" viewBox="0 0 32 32" fill="none" xmlns="http://www.w3.org/2000/svg">
<path fill-rule="evenodd" clip-rule="evenodd" d="M25.5035 7.77399C23.2229 5.40867 19.5253 5.40867 17.2447 7.774L15.9778 9.08797C15.9173 9.15072 15.8192 9.15072 15.7587 9.08797L14.4918 7.774C12.2112 5.40867 8.51359 5.40867 6.23298 7.774C3.95238 10.1393 3.89252 15.5583 6.23291 18.827C8.4203 21.8819 14.4571 25.2867 15.2371 25.7188C15.2933 25.7499 15.3422 25.7901 15.3924 25.8307C15.6607 26.0478 16.0352 26.0561 16.3116 25.8556C16.3853 25.8021 16.4563 25.7491 16.5398 25.7145C17.417 25.3511 22.7399 23.0176 25.5035 18.827C28.5214 14.2508 27.7842 10.1393 25.5035 7.77399Z" stroke="#757575" stroke-width="2" stroke-linecap="round"/>
</svg>
