<svg width="24" height="24" viewBox="0 0 24 24" fill="none" xmlns="http://www.w3.org/2000/svg">
<path d="M15 10C15 11.6569 13.6569 13 12 13C10.3431 13 9 11.6569 9 10C9 8.34315 10.3431 7 12 7C13.6569 7 15 8.34315 15 10Z" stroke="#9D9D9D" stroke-width="1.5" stroke-linecap="round"/>
<path d="M12 3C8.13401 3 5 6.05755 5 9.82923C5 11.7556 5.5 14.1598 8 16.6961L10.7308 19.4667C11.4318 20.1778 12.5682 20.1778 13.2692 19.4667L16 16.6961C18.5 14.1598 19 11.6895 19 9.82923C19 6.05755 15.866 3 12 3Z" stroke="#9D9D9D" stroke-width="1.5" stroke-linecap="round"/>
</svg>
