<svg width="24" height="24" viewBox="0 0 24 24" fill="none" xmlns="http://www.w3.org/2000/svg">
<path d="M12.0002 4.75C13.7952 4.75 15.2502 6.20506 15.2502 8C15.2502 9.79498 13.7952 11.25 12.0002 11.25C10.2053 11.2499 8.75024 9.79495 8.75024 8C8.7503 6.2051 10.2053 4.75006 12.0002 4.75Z" stroke="#9D9D9D" stroke-width="1.5"/>
<path d="M12.0008 13.75C15.0545 13.7501 17.5963 15.8828 18.1961 18.71L18.2479 18.9863C18.2569 19.0411 18.2419 19.1008 18.1922 19.1562C18.1407 19.2136 18.0645 19.25 17.9813 19.25H6.01935C5.93529 19.25 5.85878 19.2136 5.80743 19.1562C5.75814 19.1011 5.74393 19.0416 5.75275 18.9863C6.24194 16.0228 8.84843 13.75 12.0008 13.75Z" stroke="#9D9D9D" stroke-width="1.5"/>
</svg>
