<svg width="24" height="25" viewBox="0 0 24 25" fill="none" xmlns="http://www.w3.org/2000/svg">
<path d="M9.11107 6.99299C10.378 4.94818 11.011 3.92578 11.958 3.92578C12.905 3.92578 13.538 4.94818 14.8049 6.99299L15.1329 7.52219C15.4929 8.10359 15.6729 8.39429 15.9529 8.586C16.2329 8.7777 16.5829 8.8488 17.2829 8.991L17.9189 9.1206C20.3788 9.6219 21.6078 9.8721 21.9008 10.719C22.1928 11.565 21.3548 12.4479 19.6778 14.2128L19.2438 14.6691C18.7678 15.1704 18.5289 15.4215 18.4219 15.7311C18.3149 16.0416 18.3509 16.3764 18.4229 17.0451L18.4889 17.6544C18.7418 20.0097 18.8688 21.1869 18.1029 21.7098C17.3369 22.2336 16.1849 21.7557 13.883 20.8017L13.286 20.5551C12.632 20.2833 12.305 20.1483 11.958 20.1483C11.611 20.1483 11.284 20.2833 10.63 20.5551L10.0341 20.8017C7.73111 21.7557 6.57913 22.2327 5.81415 21.7107C5.04717 21.1869 5.17417 20.0097 5.42716 17.6544L5.49316 17.046C5.56516 16.3764 5.60116 16.0416 5.49316 15.732C5.38716 15.4215 5.14817 15.1704 4.67218 14.67L4.23819 14.2128C2.56123 12.4488 1.72325 11.5659 2.01524 10.719C2.30823 9.8721 3.53821 9.621 5.99815 9.1206L6.63413 8.991C7.33312 8.8488 7.68211 8.7777 7.9631 8.586C8.2431 8.39429 8.42309 8.10359 8.78308 7.52219L9.11107 6.99299Z" fill="#555555"/>
</svg>
