<svg width="26" height="22" viewBox="0 0 26 22" fill="none" xmlns="http://www.w3.org/2000/svg">
<path opacity="0.8" fill-rule="evenodd" clip-rule="evenodd" d="M22.5035 2.77399C20.2229 0.408668 16.5253 0.408668 14.2447 2.774L12.9778 4.08797C12.9173 4.15072 12.8192 4.15072 12.7587 4.08797L11.4918 2.774C9.21119 0.408668 5.51359 0.40867 3.23298 2.774C0.952376 5.13932 0.892519 10.5583 3.23291 13.827C5.4203 16.8819 11.4571 20.2867 12.2371 20.7188C12.2933 20.7499 12.3422 20.7901 12.3924 20.8307C12.6607 21.0478 13.0352 21.0561 13.3116 20.8556C13.3853 20.8021 13.4563 20.7491 13.5398 20.7145C14.417 20.3511 19.7399 18.0176 22.5035 13.827C25.5214 9.25082 24.7842 5.13932 22.5035 2.77399Z" stroke="white" stroke-width="2" stroke-linecap="round"/>
</svg>
